<svg xmlns="http://www.w3.org/2000/svg" width="180" height="260" viewBox="0 0 180 260" aria-hidden="true">
  <g fill="none" stroke="#8B9474" stroke-linecap="round" stroke-linejoin="round">
    <path d="M60 250 C55 210 70 180 85 150 C100 120 110 90 105 60" stroke-width="1.4"/>
    <path d="M95 210 C110 195 120 175 125 155" stroke-width="1.2"/>
    <path d="M40 200 C30 175 28 150 35 120" stroke-width="1.1"/>
  </g>
  <g fill="#A5A58D" opacity="0.85">
    <ellipse cx="96" cy="118" rx="10" ry="20" transform="rotate(-25 96 118)"/>
    <ellipse cx="80" cy="150" rx="9" ry="18" transform="rotate(10 80 150)"/>
    <ellipse cx="110" cy="176" rx="8" ry="16" transform="rotate(20 110 176)"/>
    <ellipse cx="62" cy="132" rx="8" ry="16" transform="rotate(-35 62 132)"/>
    <ellipse cx="54" cy="172" rx="7" ry="14" transform="rotate(-15 54 172)"/>
  </g>
  <g fill="#6B705C" opacity="0.6">
    <circle cx="118" cy="146" r="3"/>
    <circle cx="70" cy="110" r="2.6"/>
    <circle cx="90" cy="190" r="2.4"/>
  </g>
</svg>
